<svg xmlns="http://www.w3.org/2000/svg" width="82.679" height="81.25" viewBox="0 0 82.679 81.25">
  <g id="ic-grow" transform="translate(-3.909 11.599)">
    <circle id="Ellipse_6080" data-name="Ellipse 6080" cx="35" cy="35" r="35" transform="translate(16.587 -11.599)" fill="#e6f7f7"/>
    <rect id="Rectangle_1907" data-name="Rectangle 1907" width="57.804" height="37.905" rx="3.168" transform="translate(5.159 15.777)" fill="none" stroke="#00aaaf" stroke-linecap="round" stroke-linejoin="round" stroke-width="2.5"/>
    <path id="Path_14368" data-name="Path 14368" d="M59.531,43.329H8.59A3.432,3.432,0,0,1,5.159,39.9V35.44h57.8V39.9a3.432,3.432,0,0,1-3.432,3.432Z" transform="translate(0 10.353)" fill="none" stroke="#00aaaf" stroke-linecap="round" stroke-linejoin="round" stroke-width="2.5"/>
    <path id="Path_14369" data-name="Path 14369" d="M36.969,42.77H28.813v7.719a2.782,2.782,0,0,1-3,2.493h0c-2.993,0-5.42,2.016-5.42,4.5h25c0-2.487-2.427-4.5-5.42-4.5h0a2.782,2.782,0,0,1-3-2.493V42.77h0" transform="translate(1.169 10.916)" fill="none" stroke="#00aaaf" stroke-linecap="round" stroke-linejoin="round" stroke-width="2.5"/>
    <path id="Path_14370" data-name="Path 14370" d="M14.321,30.261,27.474,17.109,40.28,29.915,52.393,17.8v9.189" transform="translate(0.703 8.946)" fill="none" stroke="#00aaaf" stroke-linecap="round" stroke-linejoin="round" stroke-width="2.5"/>
    <line id="Line_866" data-name="Line 866" x1="9.034" transform="translate(44.063 26.747)" fill="none" stroke="#00aaaf" stroke-linecap="round" stroke-linejoin="round" stroke-width="2.5"/>
  </g>
</svg>
