<svg xmlns="http://www.w3.org/2000/svg" width="35" height="24" viewBox="0 0 35 24">
  <g id="ic-nav-menu-w" transform="translate(-1252 -31)">
    <line id="Line_723" data-name="Line 723" x2="33" transform="translate(1253 46)" fill="none" stroke="#fff" stroke-linecap="round" stroke-width="2"/>
    <line id="Line_724" data-name="Line 724" x2="27" transform="translate(1259 54)" fill="none" stroke="#fff" stroke-linecap="round" stroke-width="2"/>
    <path id="Path_14713" data-name="Path 14713" d="M-25.459-4.216V-.137h1.2V-7h-.888l-2.733,4.863L-30.612-7H-31.5V-.137h1.2V-4.216l2.42,4.176Zm3.328,4.078h4.606V-1.255h-3.338V-3.069h3.211V-4.176h-3.211V-5.882h3.3V-7h-4.567Zm6.4,0h1.239V-5l3.933,4.863h1.064V-7h-1.239v4.873L-14.665-7h-1.064Zm12.96-2.676a1.569,1.569,0,0,1-1.679,1.7,1.569,1.569,0,0,1-1.679-1.7V-7H-7.395v4.157A2.758,2.758,0,0,0-4.447,0,2.758,2.758,0,0,0-1.5-2.843V-7H-2.769Z" transform="translate(1287.5 38)" fill="#fff"/>
  </g>
</svg>
