<svg xmlns="http://www.w3.org/2000/svg" width="72.9" height="54.713" viewBox="0 0 72.9 54.713">
  <path id="ic-quote-r" d="M30.045-115.5C12.321-87.45,11.55-81.131,11.55-77.278c0,13.255,9.556,16.491,16.029,16.491,8.939,0,15.72-6.165,15.72-15.412,0-6.627-3.545-11.559-9.093-13.563L46.69-115.5ZM71.966-89.762,84.45-115.5H67.8C50.081-87.45,49.31-81.131,49.31-77.278c0,13.255,9.556,16.491,16.029,16.491,8.939,0,15.72-6.165,15.72-15.412C81.059-82.826,77.514-87.758,71.966-89.762Z" transform="translate(-11.55 115.5)" fill="#fb6c6c" opacity="0.5"/>
</svg>
