<svg xmlns="http://www.w3.org/2000/svg" width="55" height="55" viewBox="0 0 55 55">
  <g id="ic-security" transform="translate(-1.5 -1.5)">
    <g id="Circle" transform="translate(2 2)">
      <g id="Group_6879" data-name="Group 6879">
        <path id="Path_14332" data-name="Path 14332" d="M29,56A27,27,0,1,1,56,29,27.031,27.031,0,0,1,29,56Z" transform="translate(-2 -2)" fill="none" stroke="#000" stroke-width="1"/>
      </g>
    </g>
    <g id="Icons" transform="translate(13.925 14.324)">
      <g id="Group_6882" data-name="Group 6882">
        <g id="Group_6881" data-name="Group 6881" transform="translate(0 5.544)">
          <path id="Path_14333" data-name="Path 14333" d="M60.41,72.123A10.666,10.666,0,1,1,50.225,58.282" transform="translate(-39.554 -58.273)" fill="none" stroke="#000" stroke-width="1"/>
          <g id="Group_6880" data-name="Group 6880">
            <path id="Path_14334" data-name="Path 14334" d="M73.146,58.254a10.721,10.721,0,0,1,2.276.243" transform="translate(-62.471 -58.254)" fill="none" stroke="#000" stroke-width="1"/>
            <path id="Path_14335" data-name="Path 14335" d="M65.981,70.569c-.457,5.115-3.014,9.032-6.1,9.032-3.41,0-6.175-4.779-6.175-10.674s2.765-10.674,6.175-10.674" transform="translate(-49.207 -58.253)" fill="none" stroke="#000" stroke-width="1"/>
            <line id="Line_859" data-name="Line 859" y2="21.348" transform="translate(10.675 0)" fill="none" stroke="#000" stroke-width="1"/>
            <path id="Path_14336" data-name="Path 14336" d="M52.92,80.01H40.236a10.543,10.543,0,0,0,0,7.526H60.194" transform="translate(-39.541 -73.099)" fill="none" stroke="#000" stroke-width="1"/>
          </g>
        </g>
        <path id="Path_14337" data-name="Path 14337" d="M97.384,51.4V48.827l-2.283-.19a6.97,6.97,0,0,0-.9-2.333l1.525-1.8-1.816-1.816-1.748,1.48a6.952,6.952,0,0,0-2.286-1.012l-.2-2.354H87.11l-.19,2.283a6.945,6.945,0,0,0-2.332.9l-1.8-1.525-1.816,1.817,1.479,1.748a6.962,6.962,0,0,0-1.011,2.286l-2.354.2v2.568l2.284.19a6.931,6.931,0,0,0,.9,2.332l-1.525,1.8,1.816,1.816,1.748-1.479a6.959,6.959,0,0,0,2.287,1.011l.2,2.353h2.568l.191-2.283a6.959,6.959,0,0,0,2.332-.9l1.8,1.525L95.5,55.626,94.02,53.878a6.965,6.965,0,0,0,1.011-2.287Z" transform="translate(-66.523 -40.799)" fill="none" stroke="#000" stroke-width="1"/>
        <circle id="Ellipse_6056" data-name="Ellipse 6056" cx="3.792" cy="3.792" r="3.792" transform="translate(17.919 5.359)" fill="none" stroke="#f24334" stroke-width="1"/>
      </g>
    </g>
  </g>
</svg>
