<svg xmlns="http://www.w3.org/2000/svg" width="81.429" height="80" viewBox="0 0 81.429 80">
  <g id="ic-plan" transform="translate(-1 11.991)">
    <circle id="Ellipse_6076" data-name="Ellipse 6076" cx="35" cy="35" r="35" transform="translate(12.429 -11.991)" fill="#e6f7f7"/>
    <path id="Path_14353" data-name="Path 14353" d="M22.143,36.571A8.571,8.571,0,0,0,5,36.571,8.728,8.728,0,0,0,7.857,43v6.429a1.764,1.764,0,0,0,.571,1.143,1.088,1.088,0,0,0,1.286.143l3.857-1.286,3.857,1.286c.143,0,.286.143.429.143a2.03,2.03,0,0,0,.857-.286,1.3,1.3,0,0,0,.571-1.143V43A8.728,8.728,0,0,0,22.143,36.571ZM16.429,47.429,14,46.571a.911.911,0,0,0-.857,0l-2.429.857V44.571a9.236,9.236,0,0,0,2.857.571,6.4,6.4,0,0,0,2.857-.571Zm-2.857-5.143a5.714,5.714,0,1,1,5.714-5.714A5.731,5.731,0,0,1,13.571,42.286Z" transform="translate(1.714 17.139)" fill="#00aaaf"/>
    <circle id="Ellipse_6070" data-name="Ellipse 6070" cx="2.857" cy="2.857" r="2.857" transform="translate(12.429 50.853)" fill="#00aaaf"/>
    <path id="Path_14354" data-name="Path 14354" d="M59.571,26.571l-.857-.857a4.829,4.829,0,0,0-6.857,0l-5.143,5.143v-17a6.7,6.7,0,0,0-2.143-5L37.857,2.143a6.484,6.484,0,0,0-5-2.143H5.286A4.209,4.209,0,0,0,1,4.286V55.714A4.209,4.209,0,0,0,5.286,60H6.714a1.429,1.429,0,1,0,0-2.857H5.286a1.35,1.35,0,0,1-1.429-1.429V4.286A1.35,1.35,0,0,1,5.286,2.857H31a2.866,2.866,0,0,1,2.857,2.857V8.571a4.209,4.209,0,0,0,4.286,4.286H41a2.866,2.866,0,0,1,2.857,2.857V32.857c0,.286.143.429.143.714l-8.286,8.286a3.123,3.123,0,0,0-.429.714l-1.143,6H31a1.429,1.429,0,1,0,0,2.857h4.571L42.714,50a.786.786,0,0,0,.714-.429L59.571,33.429a4.829,4.829,0,0,0,0-6.857ZM38.143,10a1.35,1.35,0,0,1-1.429-1.429V5.714a2.789,2.789,0,0,0-.143-1L41.857,10H38.143Zm-.571,35.714,2,2-2.429.429Zm20-14.286L42.429,46.571l-3.714-3.714L53.857,27.714a2.173,2.173,0,0,1,2.857,0l.857.857a2.071,2.071,0,0,1,0,2.857Z" transform="translate(0 5.139)" fill="#00aaaf"/>
    <path id="Path_14355" data-name="Path 14355" d="M38.857,35a1.35,1.35,0,0,0-1.429,1.429v4.286A1.35,1.35,0,0,1,36,42.143H17.429a1.429,1.429,0,1,0,0,2.857H36a4.209,4.209,0,0,0,4.286-4.286V36.429A1.35,1.35,0,0,0,38.857,35Z" transform="translate(6.429 20.139)" fill="#00aaaf"/>
    <path id="Path_14356" data-name="Path 14356" d="M5,13.429a1.35,1.35,0,0,0,1.429,1.429H20.714a1.35,1.35,0,0,0,1.429-1.429A1.35,1.35,0,0,0,20.714,12H6.429A1.35,1.35,0,0,0,5,13.429Z" transform="translate(1.714 10.282)" fill="#00aaaf"/>
    <path id="Path_14357" data-name="Path 14357" d="M31.571,16H14.429a1.429,1.429,0,0,0,0,2.857H31.571a1.429,1.429,0,0,0,0-2.857Z" transform="translate(5.143 11.996)" fill="#00aaaf"/>
    <path id="Path_14358" data-name="Path 14358" d="M29,12H20.429A1.35,1.35,0,0,0,19,13.429a1.35,1.35,0,0,0,1.429,1.429H29a1.35,1.35,0,0,0,1.429-1.429A1.35,1.35,0,0,0,29,12Z" transform="translate(7.714 10.282)" fill="#00aaaf"/>
    <path id="Path_14359" data-name="Path 14359" d="M23,8H14.429A1.35,1.35,0,0,0,13,9.429a1.35,1.35,0,0,0,1.429,1.429H23a1.35,1.35,0,0,0,1.429-1.429A1.35,1.35,0,0,0,23,8Z" transform="translate(5.143 8.568)" fill="#00aaaf"/>
    <path id="Path_14360" data-name="Path 14360" d="M6.429,22.857H19.286a1.429,1.429,0,0,0,0-2.857H6.429a1.429,1.429,0,1,0,0,2.857Z" transform="translate(1.714 13.71)" fill="#00aaaf"/>
    <path id="Path_14361" data-name="Path 14361" d="M6.429,26.857h5.714a1.429,1.429,0,1,0,0-2.857H6.429a1.429,1.429,0,1,0,0,2.857Z" transform="translate(1.714 15.425)" fill="#00aaaf"/>
    <path id="Path_14362" data-name="Path 14362" d="M6.429,18.857h5.714a1.429,1.429,0,0,0,0-2.857H6.429a1.429,1.429,0,1,0,0,2.857Z" transform="translate(1.714 11.996)" fill="#00aaaf"/>
    <path id="Path_14363" data-name="Path 14363" d="M30.857,21.429A1.35,1.35,0,0,0,29.429,20h-10a1.429,1.429,0,0,0,0,2.857h10A1.35,1.35,0,0,0,30.857,21.429Z" transform="translate(7.286 13.71)" fill="#00aaaf"/>
    <path id="Path_14364" data-name="Path 14364" d="M14.429,24a1.429,1.429,0,1,0,0,2.857H25.857a1.429,1.429,0,1,0,0-2.857Z" transform="translate(5.143 15.425)" fill="#00aaaf"/>
  </g>
</svg>
