<svg xmlns="http://www.w3.org/2000/svg" width="166" height="99" viewBox="0 0 166 99">
  <path id="no-2" d="M47.764-97.681C21.3-97.681,5.48-77.908,5.48-48.181S21.3,1.319,47.764,1.319s42.284-19.773,42.284-49.5S74.226-97.681,47.764-97.681Zm0,76.909c-13.5,0-18.823-9.818-18.823-27.409S34.261-75.59,47.764-75.59s18.823,9.818,18.823,27.409S61.268-20.772,47.764-20.772Zm87.842-1.773.273-.136,8.866-7.773c15-13.091,24.961-21.409,24.961-36.273,0-16.5-12.412-30.955-33.964-30.955-21.006,0-36.283,13.5-37.1,35.045h23.325c.955-8.591,4.774-12.955,12.685-12.955,8.73,0,11.594,5.318,11.594,9.955,0,5.727-2.864,8.591-20.733,24.273L97.551-16.954v16.5H171.48V-22.545Z" transform="translate(-5.48 97.681)" fill="#f1f1f1"/>
</svg>
