<svg xmlns="http://www.w3.org/2000/svg" width="169" height="99" viewBox="0 0 169 99">
  <path id="no-3" d="M47.73-97.681c-26.44,0-42.25,19.773-42.25,49.5s15.81,49.5,42.25,49.5,42.25-19.773,42.25-49.5S74.17-97.681,47.73-97.681Zm0,76.909c-13.493,0-18.808-9.818-18.808-27.409S34.237-75.59,47.73-75.59s18.808,9.818,18.808,27.409S61.223-20.772,47.73-20.772Zm113.8-29.591c6.406-3.818,10.222-10.909,10.222-18.955,0-16.227-14.038-28.364-34.754-28.364-19.353,0-34.754,11.182-36.117,31.636h23.442c1.227-7.227,5.452-9.682,11.994-9.682,9.4,0,11.994,4.5,11.994,9.545,0,6.136-5.043,7.364-11.312,7.364H126.642v20.182h12.539c9.131,0,11.857,2.591,11.857,7.909,0,6.136-3.135,10.091-13.084,10.091-8.314,0-13.22-2.864-14.31-10.636H100.2c1.09,21.818,17.581,32.591,38.025,32.591,21.806,0,36.253-10.636,36.253-29.727C174.48-38.772,169.71-46.681,161.532-50.363Z" transform="translate(-5.48 97.681)" fill="#f4f4f4"/>
</svg>
