<svg xmlns="http://www.w3.org/2000/svg" width="176" height="99" viewBox="0 0 176 99">
  <path id="no-4" d="M47.939-97.681c-26.571,0-42.459,19.773-42.459,49.5s15.888,49.5,42.459,49.5S90.4-18.454,90.4-48.181,74.51-97.681,47.939-97.681Zm0,76.909c-13.56,0-18.9-9.818-18.9-27.409S34.38-75.59,47.939-75.59s18.9,9.818,18.9,27.409S61.5-20.772,47.939-20.772ZM181.48-42.181H168.468V-95.908H134.09L99.3-42.181v21.818l45.883-.136V-.454h23.284V-20.5H181.48Zm-57.662-.136,20.271-32.045h1.1v32.045Z" transform="translate(-5.48 97.681)" fill="#f1f1f1"/>
</svg>
