<svg xmlns="http://www.w3.org/2000/svg" width="81.429" height="80" viewBox="0 0 81.429 80">
  <g id="ic-execute" transform="translate(-2 11.9)">
    <circle id="Ellipse_6078" data-name="Ellipse 6078" cx="35" cy="35" r="35" transform="translate(13.429 -11.9)" fill="#e6f7f7"/>
    <path id="Path_14365" data-name="Path 14365" d="M26.714,32.429a1.381,1.381,0,0,0,2,0l17-17a.14.14,0,0,0,.143-.143L46,15.143l3.286-3.286,2.571.571a2.72,2.72,0,0,0,2.714-.714l4.571-4.571L55,6.143l2.286-2.286a1.381,1.381,0,0,0,0-2,1.381,1.381,0,0,0-2,0L53,4.143,52,0,47.429,4.571a2.72,2.72,0,0,0-.714,2.714l.571,2.571-2.429,2.429A26.733,26.733,0,0,0,29.143,5.714h0V2.857a1.429,1.429,0,1,0-2.857,0v3A25.664,25.664,0,1,0,53.429,31.429a25.011,25.011,0,0,0-3.857-13.571,1.446,1.446,0,1,0-2.429,1.571,22.136,22.136,0,0,1,3.429,12,22.818,22.818,0,1,1-7.714-17.143l-4,4a17.457,17.457,0,0,0-11.143-4A17.143,17.143,0,1,0,44.857,31.429,16.745,16.745,0,0,0,43,23.571a1.374,1.374,0,0,0-2.429,1.286A14.259,14.259,0,1,1,27.857,17a13.975,13.975,0,0,1,9,3.286l-4.143,4.143a8.6,8.6,0,1,0,3.571,7,1.429,1.429,0,1,0-2.857,0,5.714,5.714,0,1,1-5.714-5.714,5.151,5.151,0,0,1,2.857.857l-3.857,3.857A1.381,1.381,0,0,0,26.714,32.429Z" transform="translate(0 5.1)" fill="#00aaaf"/>
    <path id="Path_14366" data-name="Path 14366" d="M11.848,38.134a1.5,1.5,0,0,0-1.857.571L7.134,44.419a1.5,1.5,0,0,0,.571,1.857.786.786,0,0,0,.714.286,1.373,1.373,0,0,0,1.286-.857l2.857-5.714A1.518,1.518,0,0,0,11.848,38.134Z" transform="translate(2.152 21.395)" fill="#00aaaf"/>
    <path id="Path_14367" data-name="Path 14367" d="M31.689,38.832a1.374,1.374,0,0,0-2.429,1.286l2.857,5.714a1.373,1.373,0,0,0,1.286.857c.286,0,.429,0,.571-.143a1.261,1.261,0,0,0,.571-1.857Z" transform="translate(11.597 21.411)" fill="#00aaaf"/>
  </g>
</svg>
